<svg width="40" height="47" viewBox="0 0 40 47" fill="none" xmlns="http://www.w3.org/2000/svg">
    <path d="M0 12.2V11.6L20 0L40 11.6V12.1L20 24L0 12.2Z" fill="#DD1F26"/>
    <path d="M20 23.3L0 11.6V34.9L20 46.6V23.3Z" fill="#89171A"/>
    <path d="M20 46.6L39.9 34.9V11.6L20 23.3V46.6Z" fill="#B31F24"/>
    <path
        d="M31.2001 33.2C31.8001 32.8 33.5001 30.5 33.8001 28.2C33.8001 27.8 34.1001 27.2999 34.4001 26.7999C34.8001 26.1999 35.2001 25.4 35.3001 24.7C35.7001 21.4 34.0001 18.3 30.3001 20.6C27.2001 22.6 25.6001 27.8 26.2001 30.4C26.3001 30.8 26.7001 31 27.1001 31.2C27.4001 31.4 27.8001 31.5 27.9001 31.9C28.7001 34.4 30.1001 33.9 30.8001 33.5L31.2001 33.2ZM27.4001 26.6L29.5001 27.7C29.8001 27.8 29.7001 28.3999 29.4001 28.7999C29.0001 29.1999 28.6001 29.6 28.1001 29.6C26.5001 29.6 27.4001 26.6 27.4001 26.6ZM31.9001 26.2L33.8001 22.6C33.8001 22.6 34.9001 24.3 33.4001 26.2C32.9001 26.8 32.5001 27 32.1001 27.1C31.7001 27.1 31.6001 26.7 31.9001 26.2ZM30.9001 36L26.7001 39.7999C26.8001 39.9999 26.8001 40.2999 26.6001 40.5999C26.4001 40.8999 26.1001 41 25.9001 40.9C25.7001 40.8 25.8001 40.3999 25.9001 40.0999C25.8001 40.1999 25.6001 40.1999 25.5001 40.0999C25.3001 39.9999 25.4001 39.5999 25.6001 39.2999C25.8001 38.9999 26.1001 38.9 26.3001 39C26.3001 39 26.3001 38.9999 26.4001 39.0999L29.4001 36.4L26.5001 37.0999C26.5001 37.1999 26.4001 37.3 26.4001 37.4C26.3001 37.5 26.2001 37.6999 26.1001 37.7999C25.8001 37.9999 25.6001 37.8999 25.6001 37.5999C25.6001 37.3999 25.7001 37.2999 25.7001 37.0999C25.8001 36.9999 25.9001 36.8999 26.0001 36.7999C25.9001 36.7999 25.8001 36.7 25.8001 36.5C25.8001 36.3 25.9001 36.2 25.9001 36C26.0001 35.9 26.1001 35.6999 26.2001 35.5999C26.5001 35.3999 26.7001 35.4999 26.7001 35.7999C26.7001 35.8999 26.7001 35.9999 26.7001 36.0999L30.9001 35L35.0001 31.2999C34.9001 31.1999 34.9001 31.1 34.9001 31C34.9001 30.8 35.0001 30.7 35.0001 30.5C35.1001 30.4 35.2001 30.2 35.3001 30.1C35.6001 30 35.8001 30.1 35.8001 30.4C35.8001 30.6 35.7001 30.7 35.7001 30.9C35.7001 30.9 35.7001 31 35.6001 31C35.8001 30.9 36.0001 30.9999 36.0001 31.2999C36.0001 31.4999 35.9001 31.5999 35.9001 31.7999C35.8001 31.8999 35.7001 32.1 35.6001 32.2C35.4001 32.3 35.3001 32.3 35.2001 32.2L32.5001 34.5999L35.3001 33.9C35.3001 33.8 35.3001 33.8 35.4001 33.7C35.6001 33.4 35.9001 33.1 36.1001 33.2C36.3001 33.3 36.4001 33.6 36.2001 33.9C36.1001 34.1 36.0001 34.2999 35.8001 34.2999C36.0001 34.3999 36.0001 34.7 35.8001 35C35.6001 35.3 35.3001 35.6 35.1001 35.5C34.9001 35.4 34.9001 35.2 35.0001 34.9L30.9001 36Z"
        fill="white"/>
    <path d="M1 20.5L16.2 29.3V36.2L8.6 31.8V32.9L5.2 30.9V29.8L1 27.3V20.5Z" fill="#DD1F26"/>
    <path d="M1.8998 26.7L3.5998 27.7V24.3L4.3998 24.8V28.2L5.1998 28.7V24.1L1.7998 22.1V26.7H1.8998ZM6.0998 24.6V30.3L7.7998 31.3V30.2L9.4998 31.2V26.6L6.0998 24.6ZM8.6998 29.5L7.7998 29V26.7L8.5998 27.2V29.5H8.6998ZM10.2998 27V31.6L11.9998 32.6V29.2L12.7998 29.7V33.1L13.5998 33.6V30.2L14.3998 30.7V34L15.1998 34.5V30L10.2998 27Z" fill="white"/>
</svg>
